<?xml version="1.0" standalone="no"?>
<!DOCTYPE svg PUBLIC "-//W3C//DTD SVG 20010904//EN"
 "http://www.w3.org/TR/2001/REC-SVG-20010904/DTD/svg10.dtd">
<svg version="1.0" xmlns="http://www.w3.org/2000/svg"
 width="500.000000pt" height="500.000000pt" viewBox="0 0 500.000000 500.000000"
 preserveAspectRatio="xMidYMid meet">

<g transform="translate(0.000000,500.000000) scale(0.100000,-0.100000)"
fill="#000000" stroke="none">
<path d="M0 2500 l0 -2500 2500 0 2500 0 0 2500 0 2500 -2500 0 -2500 0 0
-2500z m2598 1083 c149 -221 267 -428 327 -573 l26 -65 -67 -63 c-92 -86 -213
-165 -330 -213 -144 -61 -217 -79 -336 -86 l-107 -6 -7 28 c-10 40 3 205 24
308 20 97 14 102 -16 12 -31 -92 -45 -191 -39 -272 5 -66 4 -74 -11 -71 -12 2
-19 20 -26 63 -26 169 65 422 268 745 80 127 204 310 211 310 2 0 39 -53 83
-117z m487 -200 c261 -85 259 -341 -6 -604 -71 -71 -77 -80 -84 -130 -9 -66
-37 -149 -67 -198 -32 -52 -106 -130 -152 -158 -52 -33 -150 -69 -211 -77
-109 -15 -265 32 -358 107 -40 33 -46 35 -142 40 -160 7 -271 61 -315 151 -33
70 -26 178 17 266 18 36 42 76 53 90 l20 25 -16 -48 c-11 -31 -15 -69 -12
-108 6 -83 43 -133 131 -178 62 -32 76 -35 177 -39 180 -7 332 28 510 117 291
147 480 361 480 542 0 99 -42 158 -150 209 l-45 21 60 -6 c33 -3 83 -13 110
-22z m-1310 -1359 c39 -18 62 -49 67 -90 3 -27 0 -29 -33 -32 -32 -3 -37 0
-43 23 -14 54 -119 67 -137 17 -12 -32 13 -54 98 -86 80 -31 112 -59 119 -107
10 -72 -53 -129 -143 -129 -94 0 -144 34 -159 108 -6 32 -6 32 35 32 30 0 41
-4 41 -15 0 -8 9 -24 20 -35 37 -37 130 -20 130 25 0 15 -46 55 -64 55 -24 0
-122 52 -138 73 -20 25 -23 88 -7 118 29 55 142 77 214 43z m535 -55 l0 -71
25 16 c40 26 92 21 126 -13 29 -29 29 -29 29 -156 l0 -126 -37 3 -38 3 -3 104
c-1 58 -8 111 -14 118 -16 20 -66 16 -78 -6 -5 -11 -10 -65 -10 -120 l0 -101
-40 0 -40 0 0 210 0 210 40 0 40 0 0 -71z m990 -139 l0 -210 -40 0 -40 0 0
210 0 210 40 0 40 0 0 -210z m150 0 l0 -210 -40 0 -40 0 0 210 0 210 40 0 40
0 0 -210z m-1340 85 c33 -17 60 -51 60 -76 0 -11 -11 -18 -32 -22 -27 -4 -37
0 -51 19 -24 31 -70 32 -91 2 -9 -12 -16 -41 -16 -63 0 -22 7 -51 16 -63 20
-29 69 -30 86 -2 15 24 76 28 84 6 16 -41 -56 -96 -126 -96 -87 0 -140 58
-140 155 0 62 22 111 62 135 39 24 107 26 148 5z m530 -1 c0 -14 2 -14 22 0
38 27 95 20 129 -13 29 -29 29 -30 29 -155 l0 -126 -40 0 -40 0 0 108 c0 116
-6 132 -50 132 -44 0 -50 -16 -50 -132 l0 -108 -40 0 -40 0 0 155 0 155 40 0
c30 0 40 -4 40 -16z m451 -1 c33 -20 59 -68 66 -124 l6 -39 -102 0 c-55 0
-101 -4 -101 -9 0 -5 8 -19 18 -31 22 -27 84 -30 111 -6 16 15 19 14 40 -8
l22 -24 -27 -21 c-56 -44 -146 -42 -195 5 -69 66 -61 205 14 253 40 26 108 27
148 4z m-940 -514 c9 -30 14 -56 12 -59 -3 -3 -8 1 -10 8 -6 15 -63 16 -63 0
0 -6 -3 -9 -6 -6 -9 10 29 119 40 115 6 -2 18 -28 27 -58z m105 -43 c26 -10
34 3 34 55 0 31 4 48 10 44 15 -9 12 -78 -3 -100 -10 -13 -21 -16 -40 -11 -26
6 -27 9 -25 64 l2 57 3 -52 c3 -34 9 -53 19 -57z m184 94 c0 -5 -7 -10 -15
-10 -11 0 -15 -13 -17 -52 l-2 -53 -3 53 c-3 44 -7 52 -24 52 -11 0 -17 5 -14
10 3 6 22 10 41 10 19 0 34 -4 34 -10z m124 -3 c13 -9 17 -23 14 -51 -6 -75
-70 -75 -76 0 -3 28 1 42 14 51 10 7 21 13 24 13 3 0 14 -6 24 -13z m210 0
c13 -9 17 -23 14 -51 -6 -75 -70 -75 -76 0 -3 28 1 42 14 51 10 7 21 13 24 13
3 0 14 -6 24 -13z m96 -47 c0 -47 1 -49 33 -53 28 -3 26 -4 -10 -5 l-43 -2 0
61 c0 37 4 58 10 54 6 -3 10 -28 10 -55z"/>
<path d="M2976 1838 c-21 -30 -12 -38 44 -38 27 0 51 4 54 8 11 18 -25 52 -54
52 -18 0 -34 -8 -44 -22z"/>
<path d="M2112 1410 c-11 -28 -7 -40 14 -40 15 0 17 14 4 45 -7 19 -8 19 -18
-5z"/>
<path d="M2514 1413 c-8 -29 6 -58 26 -58 20 0 34 29 26 58 -4 18 -13 27 -26
27 -13 0 -22 -9 -26 -27z"/>
<path d="M2724 1413 c-8 -29 6 -58 26 -58 20 0 34 29 26 58 -4 18 -13 27 -26
27 -13 0 -22 -9 -26 -27z"/>
</g>
</svg>
