<?xml version="1.0" standalone="no"?>
<!DOCTYPE svg PUBLIC "-//W3C//DTD SVG 20010904//EN"
 "http://www.w3.org/TR/2001/REC-SVG-20010904/DTD/svg10.dtd">
<svg version="1.0" xmlns="http://www.w3.org/2000/svg"
 width="512.000000pt" height="512.000000pt" viewBox="0 0 512.000000 512.000000"
 preserveAspectRatio="xMidYMid meet">

<g transform="translate(0.000000,512.000000) scale(0.100000,-0.100000)"
fill="#ff9d08" stroke="none">
<path d="M1296 4948 c-63 -23 -1033 -590 -1068 -625 -60 -58 -83 -156 -56
-234 17 -50 457 -811 480 -831 47 -41 128 -6 128 55 0 16 -35 89 -84 174 l-84
147 96 57 c53 31 248 143 432 249 442 254 423 242 438 274 25 51 -13 106 -74
106 -17 0 -196 -97 -494 -270 -257 -148 -472 -270 -476 -270 -5 0 -26 30 -46
65 l-37 65 22 14 c24 15 194 113 572 331 132 76 301 173 375 216 74 43 138 75
142 71 4 -4 145 -245 312 -535 182 -316 300 -530 293 -532 -7 -2 -39 -9 -72
-15 -101 -20 -291 -87 -409 -144 -199 -97 -378 -227 -529 -385 l-86 -91 -34
58 c-19 31 -53 90 -76 129 -43 74 -63 93 -101 93 -27 0 -80 -52 -80 -78 0 -21
201 -377 230 -406 11 -11 33 -19 52 -19 27 0 40 9 78 53 25 30 90 101 146 158
l100 104 121 -209 121 -208 -109 -111 c-100 -102 -109 -114 -109 -149 0 -33 9
-46 82 -121 l81 -84 -30 -67 c-17 -38 -36 -85 -43 -105 l-12 -38 -119 0 c-114
0 -121 -1 -144 -25 -33 -32 -33 -78 0 -110 24 -25 27 -25 190 -25 194 0 192
-1 224 107 11 37 43 114 70 171 60 125 59 130 -39 227 l-70 69 52 53 c29 29
55 53 59 53 10 0 170 -285 186 -333 9 -26 13 -68 11 -112 -3 -69 -6 -74 -116
-265 -61 -107 -112 -205 -112 -217 0 -32 36 -66 122 -116 71 -40 80 -49 112
-111 74 -142 231 -296 302 -296 41 0 72 27 80 68 6 29 2 36 -36 70 -124 108
-167 158 -211 247 -42 85 -47 91 -109 128 -36 21 -64 42 -62 47 3 15 144 260
151 264 3 2 35 -13 71 -34 l64 -38 0 -118 c1 -112 3 -123 32 -184 91 -190 305
-275 506 -200 31 11 77 39 103 62 l47 42 65 -35 c35 -19 68 -38 72 -44 9 -11
-138 -274 -152 -275 -5 0 -36 16 -70 36 l-60 35 -101 -6 c-114 -7 -140 -16
-156 -54 -14 -35 0 -74 35 -97 21 -14 41 -16 104 -11 l79 5 86 -49 c93 -53
141 -62 169 -31 33 37 339 578 359 636 16 45 21 84 21 151 0 82 -4 101 -47
214 -49 134 -60 219 -34 292 6 19 97 182 201 363 105 181 194 341 200 356 16
41 1 78 -37 96 -48 23 -81 4 -127 -71 -144 -239 -382 -668 -395 -712 -11 -39
-15 -83 -12 -151 3 -85 9 -111 48 -211 34 -89 44 -129 44 -175 0 -64 -23 -146
-52 -183 l-17 -22 -64 38 -65 39 0 118 c-1 108 -4 124 -28 177 -51 108 -136
183 -245 217 -126 39 -252 16 -363 -66 l-62 -45 -69 41 -69 41 17 31 c30 51
95 112 144 135 26 12 102 31 169 43 158 26 233 61 315 145 50 51 103 136 313
502 139 243 256 443 259 447 13 13 192 -91 318 -185 87 -65 241 -216 335 -328
39 -47 50 -54 79 -53 19 0 42 9 52 19 27 27 824 1412 839 1457 27 82 -4 182
-74 242 -47 41 -991 589 -1050 610 -85 31 -169 10 -237 -56 -33 -32 -103 -144
-248 -397 -178 -309 -202 -356 -196 -383 8 -37 39 -60 81 -60 39 0 62 25 124
138 25 45 48 82 52 82 6 0 1093 -624 1105 -634 2 -1 -278 -488 -416 -724 l-43
-73 -61 67 c-147 161 -353 313 -553 410 -118 57 -308 124 -409 144 -33 6 -65
13 -72 15 -8 3 25 69 87 177 58 100 100 184 100 199 0 36 -28 68 -66 75 -26 5
-37 1 -61 -23 -37 -34 -283 -461 -283 -490 0 -32 37 -72 73 -77 134 -21 233
-41 299 -62 l77 -25 -109 -187 c-59 -103 -126 -218 -149 -257 l-41 -70 0 48
c0 37 -5 53 -25 72 l-24 25 -271 0 -271 0 -24 -25 c-20 -19 -25 -35 -25 -72
l0 -48 -41 70 c-23 39 -90 154 -149 257 l-108 188 76 23 c67 21 166 42 294 62
41 6 78 44 78 78 0 32 -806 1425 -853 1474 -62 65 -162 90 -241 61z m122 -165
c26 -24 65 -90 55 -96 -4 -3 -240 -138 -523 -302 -283 -163 -529 -306 -546
-316 l-32 -19 -26 44 c-29 49 -33 83 -13 109 20 28 1009 596 1038 596 15 1 36
-7 47 -16z m2850 -269 c273 -157 505 -295 515 -306 24 -28 21 -62 -9 -114 -25
-42 -28 -44 -48 -31 -11 8 -154 90 -316 184 -162 94 -402 232 -533 308 l-237
137 21 37 c29 48 56 71 86 71 14 0 239 -124 521 -286z m-133 -294 c270 -155
500 -288 512 -296 l22 -14 -37 -65 c-20 -35 -41 -65 -45 -65 -5 0 -174 95
-375 212 -202 116 -441 254 -532 306 -91 52 -173 100 -182 107 -16 10 -13 17
23 79 l41 67 41 -24 c23 -13 263 -151 532 -307z m-2090 -1470 c131 -228 254
-436 273 -462 24 -34 30 -49 20 -52 -7 -2 -33 -9 -58 -16 -67 -18 -136 -56
-185 -101 l-44 -40 -19 44 c-11 24 -130 236 -266 471 -135 235 -246 430 -246
434 0 10 106 77 194 123 54 29 74 35 82 26 6 -7 118 -199 249 -427z m677 -157
l4 -128 -32 -51 c-35 -56 -109 -124 -134 -124 -25 0 -99 68 -134 124 l-32 51
4 128 4 127 158 0 158 0 4 -127z m-77 -842 c96 -44 145 -118 145 -221 0 -185
-196 -299 -355 -205 -78 45 -115 112 -115 207 0 32 6 73 13 91 50 118 199 180
312 128z"/>
<path d="M1292 3835 c-100 -31 -162 -117 -162 -225 0 -102 46 -175 135 -216
122 -57 270 0 322 123 7 18 13 61 13 95 0 108 -63 193 -167 224 -56 17 -85 17
-141 -1z m122 -166 c54 -42 21 -139 -48 -139 -71 0 -105 96 -50 139 15 12 37
21 49 21 12 0 34 -9 49 -21z"/>
<path d="M3683 3836 c-61 -20 -100 -52 -133 -109 -24 -42 -30 -64 -30 -115 0
-104 45 -177 135 -218 122 -57 270 0 322 123 7 18 13 61 13 96 0 53 -5 71 -32
117 -58 96 -172 140 -275 106z m121 -167 c54 -42 21 -139 -48 -139 -71 0 -105
96 -50 139 15 12 37 21 49 21 12 0 34 -9 49 -21z"/>
<path d="M3604 2325 c-37 -17 -220 -202 -233 -236 -8 -23 -2 -43 40 -130 27
-57 59 -135 70 -172 30 -102 38 -107 169 -107 l110 0 0 -160 0 -160 -110 0
c-131 0 -139 -5 -169 -107 -11 -37 -43 -115 -70 -172 -60 -124 -59 -126 39
-226 l70 -70 -113 -113 -112 -112 -70 70 c-97 98 -102 99 -227 39 -57 -27
-134 -59 -171 -70 -102 -30 -107 -38 -107 -169 l0 -110 -160 0 -160 0 0 110
c0 131 -5 139 -107 169 -37 11 -114 43 -171 70 -125 60 -130 59 -227 -39 l-70
-70 -112 112 -113 113 70 70 c98 100 99 102 39 226 -27 57 -59 135 -70 172
-30 102 -38 107 -169 107 l-110 0 0 65 c0 57 -3 69 -25 90 -15 16 -36 25 -55
25 -19 0 -40 -9 -55 -25 -24 -23 -25 -30 -25 -145 0 -115 1 -122 25 -145 23
-24 30 -25 144 -25 l119 0 12 -37 c7 -21 26 -68 43 -106 l30 -67 -81 -84 c-74
-75 -82 -87 -82 -122 0 -37 9 -48 188 -226 178 -179 189 -188 226 -188 35 0
47 8 122 82 l84 81 67 -30 c38 -17 85 -36 106 -43 l37 -12 0 -119 c0 -114 1
-121 25 -144 l24 -25 271 0 271 0 24 25 c24 23 25 30 25 144 l0 119 38 12 c20
7 67 26 105 43 l67 30 84 -81 c75 -74 87 -82 122 -82 37 0 48 9 226 188 179
178 188 189 188 226 0 35 -8 47 -82 122 l-81 84 30 67 c17 38 36 85 43 106
l12 37 119 0 c114 0 121 1 144 25 l25 24 0 271 0 271 -25 24 c-23 24 -30 25
-144 25 l-119 0 -12 38 c-7 20 -26 67 -43 105 l-30 67 81 84 c68 69 82 89 82
115 0 44 -14 67 -48 79 -20 7 -37 6 -58 -3z"/>
</g>
</svg>
