<?xml version="1.0" standalone="no"?>
<!DOCTYPE svg PUBLIC "-//W3C//DTD SVG 20010904//EN"
 "http://www.w3.org/TR/2001/REC-SVG-20010904/DTD/svg10.dtd">
<svg version="1.0" xmlns="http://www.w3.org/2000/svg"
 width="256.000000pt" height="256.000000pt" viewBox="0 0 256.000000 256.000000"
 preserveAspectRatio="xMidYMid meet">

<g transform="translate(0.000000,256.000000) scale(0.100000,-0.100000)"
fill="#ff9d08" stroke="none">
<path d="M1864 2510 c-20 -8 -392 -398 -404 -424 -3 -6 -1 -136 5 -290 l10
-278 63 -59 c34 -32 62 -61 62 -65 0 -4 -18 -26 -40 -50 -22 -24 -40 -50 -40
-58 0 -19 117 -126 138 -126 9 0 37 23 61 51 38 44 46 49 72 44 66 -15 85 2
386 327 159 170 293 320 300 331 18 31 16 104 -3 135 -21 34 -472 453 -499
463 -27 10 -85 10 -111 -1z m329 -518 c24 -26 29 -19 -143 -205 -130 -140
-136 -145 -153 -127 -16 15 -20 42 -27 185 l-9 168 71 78 71 78 86 -78 c47
-43 94 -88 104 -99z m-471 13 c28 -28 38 -88 38 -230 0 -68 -3 -85 -20 -103
-27 -29 -64 -37 -101 -22 -48 20 -57 51 -60 200 l-3 133 28 23 c37 32 86 32
118 -1z"/>
<path d="M1136 1835 c-21 -7 -52 -26 -68 -42 -56 -52 -67 -94 -88 -336 -11
-122 -23 -242 -26 -266 l-6 -45 -54 105 c-77 147 -160 227 -282 271 -49 18
-85 22 -270 26 -117 2 -223 1 -236 -2 -29 -7 -40 -31 -26 -56 9 -17 28 -19
242 -22 l233 -3 67 -32 c103 -49 146 -98 233 -273 88 -176 45 -145 370 -265
116 -43 214 -82 219 -87 6 -4 -24 -8 -67 -8 -66 0 -78 -3 -87 -20 -15 -29 5
-100 43 -145 46 -56 95 -75 200 -75 l87 0 0 -90 0 -90 -185 0 -184 0 -11 43
c-26 97 -105 181 -203 213 -164 54 -362 -56 -392 -219 l-7 -37 -268 0 c-148 0
-275 -3 -284 -6 -19 -7 -21 -45 -4 -62 9 -9 85 -12 279 -12 l266 0 7 -39 c8
-50 60 -127 114 -168 57 -43 140 -67 207 -60 141 14 237 102 281 255 3 9 54
12 213 12 182 0 212 2 226 17 15 14 16 37 13 182 -4 184 -14 222 -77 294 -45
51 -83 72 -239 132 l-137 53 2 63 c2 35 7 183 13 329 5 146 13 306 16 356 5
76 3 94 -11 107 -20 20 -66 21 -119 2z m-118 -1271 c85 -35 142 -120 142 -214
0 -130 -99 -229 -228 -230 -160 0 -265 144 -221 304 13 48 91 128 139 143 52
16 125 15 168 -3z"/>
<path d="M863 460 c-114 -69 -62 -240 73 -240 82 0 150 87 125 162 -7 18 -17
40 -24 48 -40 52 -117 65 -174 30z"/>
<path d="M165 1340 c-9 -15 -7 -352 3 -362 4 -4 134 -7 287 -6 243 3 279 5
288 19 8 13 -6 57 -59 185 l-69 169 -222 3 c-139 1 -224 -1 -228 -8z"/>
<path d="M1485 1183 c-119 -15 -172 -82 -129 -164 29 -58 128 -75 169 -29 44
48 61 171 26 190 -11 5 -23 9 -28 9 -4 -1 -21 -4 -38 -6z"/>
</g>
</svg>
