
<svg >

<symbol id="funnel" preserveAspectRatio="xMidYMid meet">

<g transform="translate(0.000000,200.000000) scale(0.100000,-0.100000)"
fill="#000000" stroke="none">
<path d="M110 1993 c-29 -11 -69 -56 -75 -84 -9 -39 11 -94 42 -119 18 -14 41
-20 74 -20 39 0 53 5 77 29 50 51 48 126 -6 174 -21 19 -86 31 -112 20z m70
-88 c14 -17 5 -51 -16 -59 -22 -8 -54 11 -54 32 0 38 46 56 70 27z"/>
<path d="M738 1984 c-35 -18 -58 -62 -58 -110 0 -28 8 -44 34 -70 29 -29 41
-34 81 -34 40 0 52 5 81 34 26 26 34 42 34 70 0 97 -91 155 -172 110z m90 -96
c2 -19 -3 -30 -18 -38 -27 -14 -50 2 -50 35 0 29 9 37 40 33 19 -2 26 -10 28
-30z"/>
<path d="M1395 1991 c-46 -20 -80 -85 -70 -133 4 -15 20 -42 37 -58 25 -25 38
-30 77 -30 58 0 94 25 111 75 15 46 5 86 -29 119 -31 30 -91 42 -126 27z m75
-86 c23 -28 -9 -72 -45 -59 -36 14 -24 74 15 74 10 0 23 -7 30 -15z"/>
<path d="M390 1893 c-105 -95 5 -253 130 -188 32 16 60 61 60 95 0 100 -118
157 -190 93z m106 -79 c8 -31 -6 -47 -36 -42 -53 7 -47 68 6 68 17 0 25 -7 30
-26z"/>
<path d="M1116 1755 c-54 -14 -110 -63 -128 -112 l-12 -33 -467 0 c-412 0
-469 -2 -483 -16 -26 -26 -58 26 303 -489 l231 -330 0 -316 c0 -241 3 -319 13
-326 6 -5 100 -36 207 -68 107 -32 200 -60 206 -62 6 -2 19 3 28 12 14 15 16
58 16 388 l0 372 231 330 c361 515 329 463 303 489 -12 12 -37 16 -109 16
l-93 0 -22 46 c-40 81 -132 122 -224 99z m88 -75 c28 -10 66 -45 66 -60 0 -6
-42 -10 -105 -10 -58 0 -105 4 -105 8 0 13 42 50 70 61 33 13 43 13 74 1z
m250 -162 c-4 -7 -17 -25 -28 -40 l-20 -28 -611 0 -611 0 -20 28 c-11 15 -24
33 -28 40 -6 9 129 12 659 12 530 0 665 -3 659 -12z m-157 -225 c-30 -43 -120
-172 -201 -287 l-146 -209 0 -348 c0 -192 -3 -349 -7 -349 -5 0 -73 20 -153
44 l-145 44 -5 308 -5 309 -189 270 c-104 149 -193 276 -199 283 -7 9 103 12
547 12 l557 0 -54 -77z"/>
<path d="M777 1289 c-15 -9 -17 -28 -17 -144 0 -74 -4 -135 -9 -135 -5 0 -14
7 -21 15 -23 28 -70 12 -70 -24 0 -23 111 -131 135 -131 24 0 135 108 135 131
0 36 -47 52 -70 24 -7 -8 -16 -15 -21 -15 -5 0 -9 61 -9 135 0 118 -2 135 -18
144 -11 6 -24 6 -35 0z"/>
</g>
</symbol>



<symbol id="funnel-2" >
<g id="SVGRepo_bgCarrier" stroke-width="0"></g><g id="SVGRepo_tracerCarrier" stroke-linecap="round" stroke-linejoin="round"></g><g id="SVGRepo_iconCarrier"><defs><style>.cls-1{fill:none;stroke:#ff9d08;stroke-miterlimit:10;stroke-width:1.82px;}</style></defs><polygon class="cls-1" points="2 2 2 5.64 10.18 15.64 10.18 22 13.82 20.18 13.82 15.64 22 5.64 22 2 2 2"></polygon></g>
</symbol>

<!DOCTYPE svg PUBLIC "-//W3C//DTD SVG 20010904//EN"
 "http://www.w3.org/TR/2001/REC-SVG-20010904/DTD/svg10.dtd">
<symbol id="thermometer"
 width="104.000000pt" height="200.000000pt" viewBox="0 0 104.000000 200.000000"
 preserveAspectRatio="xMidYMid meet">

<g transform="translate(0.000000,200.000000) scale(0.100000,-0.100000)"
fill="#000000" stroke="none">
<path d="M302 1979 c-51 -26 -95 -77 -111 -128 -7 -27 -11 -195 -11 -548 0
-578 3 -551 -81 -664 -71 -96 -92 -162 -87 -269 3 -67 10 -96 32 -140 38 -76
116 -153 190 -187 53 -24 73 -28 156 -28 88 0 101 3 162 33 135 66 211 186
212 337 1 99 -20 164 -79 243 -87 116 -79 60 -85 672 l-5 545 -25 45 c-54 96
-175 137 -268 89z m173 -50 c17 -10 41 -36 53 -57 22 -40 22 -42 22 -554 0
-582 -1 -574 75 -680 72 -101 89 -143 93 -233 5 -104 -20 -173 -86 -244 -133
-141 -355 -141 -487 0 -68 72 -88 126 -88 229 0 99 15 141 87 235 78 103 76
85 76 646 0 324 4 516 11 549 25 116 145 169 244 109z"/>
<path d="M326 1729 l-26 -31 0 -492 c0 -553 0 -555 -72 -686 -34 -62 -41 -84
-41 -131 0 -111 75 -190 187 -197 95 -6 165 36 201 120 27 66 20 113 -35 223
-39 78 -52 117 -60 175 -5 41 -10 283 -10 538 l0 463 -25 24 c-36 37 -86 34
-119 -6z m88 -25 c14 -14 16 -73 16 -502 0 -552 1 -558 75 -699 51 -97 54
-121 23 -183 -43 -84 -155 -116 -226 -63 -83 61 -93 136 -33 246 76 140 74
123 79 687 2 332 7 509 14 517 14 17 33 16 52 -3z"/>
<path d="M279 421 c-10 -33 -9 -44 7 -77 23 -46 51 -65 63 -45 6 10 2 23 -11
42 -17 22 -19 36 -14 73 7 42 5 46 -13 46 -15 0 -23 -10 -32 -39z"/>
<path d="M852 1800 c-157 -39 -185 -51 -165 -71 15 -15 336 -90 346 -80 4 4 7
48 5 97 -2 70 -6 89 -18 90 -8 1 -84 -15 -168 -36z m148 -58 l0 -49 -90 20
c-49 11 -90 23 -90 27 0 4 39 16 88 27 48 12 88 21 90 22 1 0 2 -21 2 -47z"/>
<path d="M687 1604 c-4 -4 -7 -14 -7 -21 0 -11 12 -13 48 -11 34 2 47 7 47 18
0 10 -12 16 -40 18 -23 2 -44 0 -48 -4z"/>
<path d="M683 1444 c-7 -19 13 -34 47 -34 34 0 54 15 47 34 -4 11 -19 16 -47
16 -28 0 -43 -5 -47 -16z"/>
<path d="M691 1301 c-27 -17 -4 -41 39 -41 28 0 43 5 47 16 7 19 -13 34 -47
34 -14 0 -31 -4 -39 -9z"/>
<path d="M682 1133 c4 -24 93 -27 93 -3 0 11 -13 16 -48 18 -42 3 -48 1 -45
-15z"/>
<path d="M685 990 c-12 -19 10 -32 51 -28 27 2 39 8 39 18 0 19 -79 27 -90 10z"/>
<path d="M687 844 c-4 -4 -7 -14 -7 -21 0 -11 12 -13 48 -11 34 2 47 7 47 18
0 10 -12 16 -40 18 -23 2 -44 0 -48 -4z"/>
</g>
</symbol>


<!DOCTYPE svg PUBLIC "-//W3C//DTD SVG 20010904//EN"
 "http://www.w3.org/TR/2001/REC-SVG-20010904/DTD/svg10.dtd">
<symbol id="tire"
 width="200.000000pt" height="200.000000pt" viewBox="0 0 200.000000 200.000000"
 preserveAspectRatio="xMidYMid meet">

<g transform="translate(0.000000,200.000000) scale(0.100000,-0.100000)"
fill="#000000" stroke="none">
<path d="M827 1985 c-499 -95 -850 -533 -824 -1030 14 -254 115 -484 292 -660
124 -125 298 -224 471 -267 127 -32 341 -32 468 0 173 43 347 142 471 267 125
124 224 298 267 471 32 127 32 341 0 468 -26 103 -90 245 -153 337 -127 188
-354 343 -582 400 -110 27 -305 34 -410 14z m398 -44 c165 -40 309 -119 433
-235 102 -97 158 -174 217 -298 66 -140 89 -244 89 -408 0 -106 -5 -154 -22
-224 -27 -106 -94 -254 -156 -340 -51 -71 -170 -188 -239 -235 -78 -53 -227
-119 -323 -143 -126 -31 -322 -31 -448 0 -97 24 -246 90 -322 143 -71 49 -191
166 -240 235 -62 87 -130 234 -156 340 -31 126 -31 322 0 448 27 106 94 254
156 340 51 71 170 188 239 235 111 76 273 138 415 161 83 13 265 3 357 -19z"/>
<path d="M860 1544 c-195 -51 -355 -212 -405 -409 -75 -294 112 -604 410 -680
294 -75 604 112 680 410 75 294 -112 604 -410 680 -74 19 -202 18 -275 -1z
m314 -43 c150 -53 276 -180 328 -331 18 -51 23 -87 23 -170 0 -83 -5 -119 -23
-170 -52 -150 -176 -276 -328 -332 -46 -17 -82 -22 -169 -22 -164 -1 -263 38
-377 150 -97 96 -146 204 -155 344 -16 253 146 475 397 545 76 21 225 14 304
-14z"/>
<path d="M883 1455 c-124 -34 -244 -128 -297 -233 -97 -191 -64 -405 83 -553
185 -185 477 -185 662 0 185 185 185 477 0 662 -118 118 -292 166 -448 124z
m220 -30 c177 -46 299 -179 330 -360 31 -179 -70 -373 -236 -455 -270 -133
-579 27 -630 325 -51 300 241 567 536 490z"/>
<path d="M950 1338 c-11 -12 -20 -32 -20 -45 0 -30 42 -73 70 -73 28 0 70 43
70 73 0 33 -35 67 -70 67 -17 0 -38 -9 -50 -22z m80 -23 c23 -28 -9 -72 -45
-59 -36 14 -24 74 15 74 10 0 23 -7 30 -15z"/>
<path d="M754 1239 c-3 -6 12 -30 35 -52 32 -33 43 -39 53 -29 9 9 4 21 -27
52 -42 43 -50 46 -61 29z"/>
<path d="M1185 1210 c-31 -31 -36 -43 -27 -52 10 -10 21 -4 53 29 23 22 38 46
35 52 -11 17 -19 14 -61 -29z"/>
<path d="M920 1158 c-132 -67 -132 -249 0 -315 56 -29 104 -29 160 0 132 66
132 248 0 315 -24 12 -60 22 -80 22 -20 0 -56 -10 -80 -22z m127 -19 c67 -25
111 -99 98 -165 -8 -45 -57 -100 -101 -114 -100 -33 -209 62 -190 165 12 62
82 124 143 125 12 0 34 -5 50 -11z"/>
<path d="M952 1047 c-28 -30 -28 -68 1 -95 30 -28 68 -28 95 1 28 30 28 68 -1
95 -30 28 -68 28 -95 -1z m78 -22 c26 -32 -13 -81 -47 -59 -35 22 -23 74 17
74 10 0 23 -7 30 -15z"/>
<path d="M662 1050 c-44 -41 -13 -120 45 -120 30 0 73 42 73 70 0 28 -43 70
-73 70 -13 0 -33 -9 -45 -20z m72 -26 c9 -8 16 -19 16 -24 0 -13 -30 -40 -44
-40 -31 0 -47 45 -24 68 16 16 33 15 52 -4z"/>
<path d="M1245 1045 c-14 -13 -25 -33 -25 -45 0 -28 43 -70 73 -70 33 0 67 35
67 70 0 35 -34 70 -67 70 -13 0 -35 -11 -48 -25z m79 -27 c13 -21 -2 -51 -26
-56 -16 -3 -48 23 -48 38 0 15 32 41 48 38 8 -2 20 -11 26 -20z"/>
<path d="M785 810 c-31 -31 -36 -43 -27 -52 10 -10 21 -4 53 29 23 22 38 46
35 52 -11 17 -19 14 -61 -29z"/>
<path d="M1154 839 c-3 -6 12 -30 35 -52 32 -33 43 -39 53 -29 9 9 4 21 -27
52 -42 43 -50 46 -61 29z"/>
<path d="M955 755 c-30 -29 -32 -64 -5 -93 41 -44 120 -13 120 45 0 30 -42 73
-70 73 -11 0 -32 -11 -45 -25z m70 -21 c19 -20 16 -43 -7 -58 -21 -13 -51 2
-56 26 -3 16 23 48 38 48 5 0 16 -7 25 -16z"/>
</g>
</symbol>


<!DOCTYPE svg PUBLIC "-//W3C//DTD SVG 20010904//EN"
 "http://www.w3.org/TR/2001/REC-SVG-20010904/DTD/svg10.dtd">
<symbol id="wrench"
 width="200.000000pt" height="199.000000pt" viewBox="0 0 200.000000 199.000000"
 preserveAspectRatio="xMidYMid meet">

<g transform="translate(0.000000,199.000000) scale(0.100000,-0.100000)"
fill="#000000" stroke="none">
<path d="M1193 1978 c-6 -7 -22 -45 -37 -85 -26 -68 -30 -73 -72 -89 l-45 -17
-72 31 c-40 18 -79 32 -87 32 -22 0 -140 -122 -140 -144 0 -10 14 -49 31 -87
30 -70 30 -70 13 -114 -15 -41 -21 -46 -88 -71 -39 -15 -77 -32 -83 -37 -9 -6
-13 -41 -13 -108 0 -88 2 -99 20 -109 17 -9 20 -21 20 -78 1 -40 8 -89 20
-122 11 -30 19 -58 20 -61 0 -4 -147 -143 -326 -310 -327 -303 -354 -334 -354
-396 0 -79 138 -213 220 -213 19 0 49 8 67 17 32 19 456 466 461 487 1 7 -7
21 -18 31 -18 16 -22 17 -34 4 -7 -8 -108 -116 -225 -241 -252 -269 -246 -266
-343 -170 -66 64 -75 102 -35 146 12 13 166 158 342 321 176 163 321 302 323
310 2 7 -6 31 -17 52 -107 211 30 469 273 514 33 6 75 8 94 4 l35 -7 -114
-114 -113 -114 40 -122 40 -123 105 -37 c57 -20 115 -37 129 -37 19 -1 47 21
110 84 47 47 87 85 91 85 4 0 2 -21 -2 -47 -21 -110 -94 -204 -197 -255 -59
-30 -75 -33 -152 -33 -47 0 -103 4 -125 9 l-41 8 -68 -77 -69 -76 21 -22 22
-21 62 61 63 62 55 -11 c30 -5 78 -7 107 -4 l51 6 12 -35 c19 -58 32 -65 121
-65 44 0 88 4 98 10 10 5 31 43 47 84 16 42 33 78 39 80 5 2 26 11 45 19 34
15 38 14 113 -19 43 -19 80 -34 83 -34 12 0 144 134 144 145 0 7 -15 46 -33
86 l-34 74 19 46 c18 42 24 47 82 68 104 37 106 39 106 136 0 46 -3 90 -6 99
-3 8 -38 27 -77 42 -83 31 -90 36 -110 85 -14 35 -13 39 21 118 l35 82 -69 70
c-38 38 -73 69 -79 69 -5 0 -45 -14 -88 -32 l-77 -32 -43 21 c-38 18 -47 29
-66 80 -40 104 -38 103 -145 103 -63 0 -97 -4 -103 -12z m193 -130 c31 -77 43
-87 137 -119 35 -12 43 -10 109 19 l72 32 38 -37 c21 -20 38 -42 38 -49 0 -6
-14 -41 -30 -78 l-30 -66 26 -63 c14 -34 31 -67 37 -74 7 -6 41 -23 77 -36
l65 -24 3 -60 3 -60 -75 -27 -74 -27 -28 -65 c-15 -36 -27 -71 -27 -78 0 -7
12 -44 28 -80 l29 -67 -42 -41 -41 -41 -73 32 -74 32 -69 -30 -70 -29 -30 -76
-30 -77 -59 3 c-50 3 -60 6 -67 25 -7 19 -2 25 39 44 26 12 77 53 113 89 36
37 88 77 115 90 59 29 154 120 183 178 64 125 66 267 6 389 l-36 73 -24 -16
c-14 -9 -25 -20 -25 -24 0 -5 12 -32 28 -62 24 -47 27 -64 27 -153 0 -89 -3
-106 -28 -157 -28 -58 -88 -127 -128 -148 -20 -11 -21 -10 -14 6 4 11 10 53
13 94 4 67 8 79 38 112 l33 37 -42 123 -42 122 -122 40 c-113 37 -123 39 -140
24 -15 -14 -33 -15 -100 -11 -46 3 -83 9 -83 13 0 9 49 44 96 68 23 12 71 26
107 33 56 10 76 10 134 -5 37 -9 90 -30 117 -47 l49 -30 20 20 c20 19 20 21 4
39 -23 25 -111 68 -170 83 -27 6 -84 10 -130 7 -115 -6 -197 -45 -286 -136
-54 -55 -104 -92 -126 -92 -2 0 1 15 7 33 9 28 6 43 -21 102 l-31 69 41 42 42
43 56 -26 c82 -38 100 -38 173 -5 49 22 67 36 72 55 3 14 15 46 26 71 l19 46
59 0 58 0 30 -72z m78 -505 l28 -86 -80 -80 -80 -79 -88 29 -88 29 -29 89 -30
90 82 76 83 77 87 -29 87 -29 28 -87z m-770 -20 c-15 -27 -29 -50 -31 -52 -2
-2 -3 14 -3 36 0 32 5 42 23 51 37 18 39 14 11 -35z m387 -141 l25 -77 87 -30
c48 -16 87 -33 87 -37 0 -4 -13 -16 -30 -28 l-30 -21 -85 27 -85 28 -29 87
-29 87 26 26 c14 14 28 23 31 20 4 -3 18 -40 32 -82z"/>
<path d="M1229 1361 c-31 -32 -38 -71 -18 -115 11 -23 62 -56 89 -56 25 0 71
32 85 61 49 95 -80 186 -156 110z m99 -74 c-4 -30 -43 -35 -57 -8 -8 15 -7 23
5 35 21 22 56 3 52 -27z"/>
<path d="M560 605 l-245 -245 23 -22 22 -23 113 110 c315 308 377 371 377 381
0 10 -31 44 -41 44 -2 0 -114 -110 -249 -245z"/>
<path d="M222 267 l-22 -23 23 -22 23 -22 22 23 22 23 -23 22 -23 22 -22 -23z"/>
</g>
</symbol>

</svg>
