<svg display="none">
        <symbol id="telegram" >
        <g stroke-width="0"/>
        <g id="SVGRepo_tracerCarrier" stroke-linecap="round" stroke-linejoin="round"/>
        <g id="SVGRepo_iconCarrier">
        <path stroke-width="12" d="M23.073 88.132s65.458-26.782 88.16-36.212c8.702-3.772 38.215-15.843 38.215-15.843s13.621-5.28 12.486 7.544c-.379 5.281-3.406 23.764-6.433 43.756-4.54 28.291-9.459 59.221-9.459 59.221s-.756 8.676-7.188 10.185c-6.433 1.509-17.027-5.281-18.919-6.79-1.513-1.132-28.377-18.106-38.214-26.404-2.649-2.263-5.676-6.79.378-12.071 13.621-12.447 29.891-27.913 39.728-37.72 4.54-4.527 9.081-15.089-9.837-2.264-26.864 18.483-53.35 35.835-53.35 35.835s-6.053 3.772-17.404.377c-11.351-3.395-24.594-7.921-24.594-7.921s-9.08-5.659 6.433-11.693Z"/>
        </g>
        </symbol>
        <symbol id="viber">
        <g stroke-width="0"/>
        <g id="SVGRepo_tracerCarrier" stroke-linecap="round" stroke-linejoin="round"/>
        <g id="SVGRepo_iconCarrier"> <path d="M13 4C12.4477 4 12 4.44772 12 5C12 5.55228 12.4477 6 13 6C14.2728 6 15.2557 6.41989 15.9179 7.08211C16.5801 7.74433 17 8.72725 17 10C17 10.5523 17.4477 11 18 11C18.5523 11 19 10.5523 19 10C19 8.27275 18.4199 6.75567 17.3321 5.66789C16.2443 4.58011 14.7272 4 13 4Z"/> <path d="M5.014 8.00613C5.12827 7.1024 6.30277 5.87414 7.23488 6.01043L7.23339 6.00894C8.01251 6.15699 8.65217 7.32965 9.07373 8.10246C9.14298 8.22942 9.20635 8.34559 9.26349 8.44465C9.55041 8.95402 9.3641 9.4701 9.09655 9.68787C9.06561 9.7128 9.03317 9.73855 8.9998 9.76504C8.64376 10.0477 8.18114 10.4149 8.28943 10.7834C8.5 11.5 11 14 12.2296 14.7107C12.6061 14.9283 12.8988 14.5057 13.1495 14.1438C13.2087 14.0583 13.2656 13.9762 13.3207 13.9067C13.5301 13.6271 14.0466 13.46 14.5548 13.736C15.3138 14.178 16.0288 14.6917 16.69 15.27C17.0202 15.546 17.0977 15.9539 16.8689 16.385C16.4659 17.1443 15.3003 18.1456 14.4542 17.9421C12.9764 17.5868 7 15.27 5.08033 8.55801C4.97981 8.26236 4.99645 8.13792 5.01088 8.02991L5.014 8.00613Z"/> <path d="M13 7C12.4477 7 12 7.44772 12 8C12 8.55228 12.4477 9 13 9C13.1748 9 13.4332 9.09745 13.6679 9.33211C13.9025 9.56676 14 9.82523 14 10C14 10.5523 14.4477 11 15 11C15.5523 11 16 10.5523 16 10C16 9.17477 15.5975 8.43324 15.0821 7.91789C14.5668 7.40255 13.8252 7 13 7Z"/> <path fill-rule="evenodd" clip-rule="evenodd" d="M7.51742 23.8312C7.54587 23.8469 7.57508 23.8612 7.60492 23.874C8.14762 24.1074 8.81755 23.5863 10.1574 22.5442L11.5 21.5C14.1884 21.589 16.514 21.2362 18.312 20.6071C20.3227 19.9035 21.9036 18.3226 22.6072 16.3119C23.5768 13.541 23.5768 8.45883 22.6072 5.68794C21.9036 3.67722 20.3227 2.0963 18.312 1.39271C15.1103 0.272407 8.82999 0.293306 5.68806 1.39271C3.67733 2.0963 2.09642 3.67722 1.39283 5.68794C0.423255 8.45883 0.423255 13.541 1.39283 16.3119C2.09642 18.3226 3.67733 19.9035 5.68806 20.6071C6.08252 20.7451 6.52371 20.8965 7 21C7 22.6974 7 23.5461 7.51742 23.8312ZM9 20.9107V19.7909C9 19.5557 8.836 19.3524 8.60597 19.3032C7.84407 19.1403 7.08676 18.9776 6.34862 18.7193C4.91238 18.2168 3.78316 17.0875 3.2806 15.6513C2.89871 14.5599 2.66565 12.8453 2.66565 10.9999C2.66565 9.15453 2.89871 7.43987 3.2806 6.3485C3.78316 4.91227 4.91238 3.78304 6.34862 3.28048C7.61625 2.83692 9.71713 2.56282 11.9798 2.56032C14.2422 2.55782 16.3561 2.82723 17.6514 3.28048C19.0876 3.78304 20.2169 4.91227 20.7194 6.3485C21.1013 7.43987 21.3344 9.15453 21.3344 10.9999C21.3344 12.8453 21.1013 14.5599 20.7194 15.6513C20.2169 17.0875 19.0876 18.2168 17.6514 18.7193C15.5197 19.4652 13.259 19.549 11.0239 19.4828C10.9071 19.4794 10.7926 19.5165 10.7004 19.5882L9 20.9107Z"/> </g>
        </symbol>
        <symbol id="whatsapp">
        <g stroke-width="0"/>
        <g id="SVGRepo_tracerCarrier" stroke-linecap="round" stroke-linejoin="round"/>
        <g id="SVGRepo_iconCarrier"> <path d="M6.014 8.00613C6.12827 7.1024 7.30277 5.87414 8.23488 6.01043L8.23339 6.00894C9.14051 6.18132 9.85859 7.74261 10.2635 8.44465C10.5504 8.95402 10.3641 9.4701 10.0965 9.68787C9.7355 9.97883 9.17099 10.3803 9.28943 10.7834C9.5 11.5 12 14 13.2296 14.7107C13.695 14.9797 14.0325 14.2702 14.3207 13.9067C14.5301 13.6271 15.0466 13.46 15.5548 13.736C16.3138 14.178 17.0288 14.6917 17.69 15.27C18.0202 15.546 18.0977 15.9539 17.8689 16.385C17.4659 17.1443 16.3003 18.1456 15.4542 17.9421C13.9764 17.5868 8 15.27 6.08033 8.55801C5.97237 8.24048 5.99955 8.12044 6.014 8.00613Z"/> <path fill-rule="evenodd" clip-rule="evenodd" d="M12 23C10.7764 23 10.0994 22.8687 9 22.5L6.89443 23.5528C5.56462 24.2177 4 23.2507 4 21.7639V19.5C1.84655 17.492 1 15.1767 1 12C1 5.92487 5.92487 1 12 1C18.0751 1 23 5.92487 23 12C23 18.0751 18.0751 23 12 23ZM6 18.6303L5.36395 18.0372C3.69087 16.4772 3 14.7331 3 12C3 7.02944 7.02944 3 12 3C16.9706 3 21 7.02944 21 12C21 16.9706 16.9706 21 12 21C11.0143 21 10.552 20.911 9.63595 20.6038L8.84847 20.3397L6 21.7639V18.6303Z"/> </g>
        </symbol>
        <symbol id="email">
        <g stroke-width="0"/>
        <g id="SVGRepo_tracerCarrier" stroke-linecap="round" stroke-linejoin="round"/>
        <g id="SVGRepo_iconCarrier"> <path fill-rule="evenodd" clip-rule="evenodd" d="M3.75 5.25L3 6V18L3.75 18.75H20.25L21 18V6L20.25 5.25H3.75ZM4.5 7.6955V17.25H19.5V7.69525L11.9999 14.5136L4.5 7.6955ZM18.3099 6.75H5.68986L11.9999 12.4864L18.3099 6.75Z"/> </g>
        </symbol>
        <symbol id="facebook">
        <g stroke-width="0"/>
        <g id="SVGRepo_tracerCarrier" stroke-linecap="round" stroke-linejoin="round"/>
        <g id="SVGRepo_iconCarrier"> <path fill-rule="evenodd" clip-rule="evenodd" d="M2 6C2 3.79086 3.79086 2 6 2H18C20.2091 2 22 3.79086 22 6V18C22 20.2091 20.2091 22 18 22H6C3.79086 22 2 20.2091 2 18V6ZM6 4C4.89543 4 4 4.89543 4 6V18C4 19.1046 4.89543 20 6 20H12V13H11C10.4477 13 10 12.5523 10 12C10 11.4477 10.4477 11 11 11H12V9.5C12 7.567 13.567 6 15.5 6H16.1C16.6523 6 17.1 6.44772 17.1 7C17.1 7.55228 16.6523 8 16.1 8H15.5C14.6716 8 14 8.67157 14 9.5V11H16.1C16.6523 11 17.1 11.4477 17.1 12C17.1 12.5523 16.6523 13 16.1 13H14V20H18C19.1046 20 20 19.1046 20 18V6C20 4.89543 19.1046 4 18 4H6Z"/> </g>
        </symbol>
        <symbol id="instagram">
        <g stroke-width="0"/>
        <g id="SVGRepo_tracerCarrier" stroke-linecap="round" stroke-linejoin="round"/>
        <g id="SVGRepo_iconCarrier"> <path d="M12 7.90001C11.1891 7.90001 10.3964 8.14048 9.72218 8.59099C9.04794 9.0415 8.52243 9.68184 8.21211 10.431C7.90179 11.1802 7.8206 12.0046 7.9788 12.7999C8.13699 13.5952 8.52748 14.3258 9.10088 14.8992C9.67427 15.4725 10.4048 15.863 11.2001 16.0212C11.9955 16.1794 12.8198 16.0982 13.569 15.7879C14.3182 15.4776 14.9585 14.9521 15.409 14.2779C15.8596 13.6036 16.1 12.8109 16.1 12C16.1013 11.4612 15.9962 10.9275 15.7906 10.4295C15.585 9.93142 15.2831 9.47892 14.9021 9.09794C14.5211 8.71695 14.0686 8.415 13.5706 8.20942C13.0725 8.00385 12.5388 7.8987 12 7.90001ZM12 14.67C11.4719 14.67 10.9557 14.5134 10.5166 14.22C10.0776 13.9267 9.73534 13.5097 9.53326 13.0218C9.33117 12.5339 9.2783 11.9971 9.38132 11.4791C9.48434 10.9612 9.73863 10.4854 10.112 10.112C10.4854 9.73863 10.9612 9.48434 11.4791 9.38132C11.9971 9.2783 12.5339 9.33117 13.0218 9.53326C13.5097 9.73534 13.9267 10.0776 14.22 10.5166C14.5134 10.9557 14.67 11.4719 14.67 12C14.67 12.7081 14.3887 13.3873 13.888 13.888C13.3873 14.3887 12.7081 14.67 12 14.67ZM17.23 7.73001C17.23 7.9278 17.1714 8.12114 17.0615 8.28558C16.9516 8.45003 16.7954 8.57821 16.6127 8.65389C16.43 8.72958 16.2289 8.74938 16.0349 8.7108C15.8409 8.67221 15.6628 8.57697 15.5229 8.43712C15.3831 8.29727 15.2878 8.11909 15.2492 7.92511C15.2106 7.73112 15.2304 7.53006 15.3061 7.34733C15.3818 7.16461 15.51 7.00843 15.6744 6.89855C15.8389 6.78866 16.0322 6.73001 16.23 6.73001C16.4952 6.73001 16.7496 6.83537 16.9371 7.02291C17.1247 7.21044 17.23 7.4648 17.23 7.73001ZM19.94 8.73001C19.9691 7.48684 19.5054 6.28261 18.65 5.38001C17.7522 4.5137 16.5474 4.03897 15.3 4.06001C14 4.00001 10 4.00001 8.70001 4.06001C7.45722 4.0331 6.25379 4.49652 5.35001 5.35001C4.49465 6.25261 4.03093 7.45684 4.06001 8.70001C4.00001 10 4.00001 14 4.06001 15.3C4.03093 16.5432 4.49465 17.7474 5.35001 18.65C6.25379 19.5035 7.45722 19.9669 8.70001 19.94C10.02 20.02 13.98 20.02 15.3 19.94C16.5432 19.9691 17.7474 19.5054 18.65 18.65C19.5054 17.7474 19.9691 16.5432 19.94 15.3C20 14 20 10 19.94 8.70001V8.73001ZM18.24 16.73C18.1042 17.074 17.8993 17.3863 17.6378 17.6478C17.3763 17.9093 17.064 18.1142 16.72 18.25C15.1676 18.5639 13.5806 18.6715 12 18.57C10.4228 18.6716 8.83902 18.564 7.29001 18.25C6.94608 18.1142 6.63369 17.9093 6.37223 17.6478C6.11076 17.3863 5.90579 17.074 5.77001 16.73C5.35001 15.67 5.44001 13.17 5.44001 12.01C5.44001 10.85 5.35001 8.34001 5.77001 7.29001C5.90196 6.94268 6.10547 6.62698 6.36733 6.36339C6.62919 6.09981 6.94355 5.89423 7.29001 5.76001C8.83902 5.44599 10.4228 5.33839 12 5.44001C13.5806 5.33856 15.1676 5.44616 16.72 5.76001C17.064 5.89579 17.3763 6.10076 17.6378 6.36223C17.8993 6.62369 18.1042 6.93608 18.24 7.28001C18.66 8.34001 18.56 10.84 18.56 12C18.56 13.16 18.66 15.67 18.24 16.72V16.73Z"/> </g>
        </symbol>
       <symbol id="map">
<path d="M5.7 15C4.03377 15.6353 3 16.5205 3 17.4997C3 19.4329 7.02944 21 12 21C16.9706 21 21 19.4329 21 17.4997C21 16.5205 19.9662 15.6353 18.3 15M12 9H12.01M18 9C18 13.0637 13.5 15 12 18C10.5 15 6 13.0637 6 9C6 5.68629 8.68629 3 12 3C15.3137 3 18 5.68629 18 9ZM13 9C13 9.55228 12.5523 10 12 10C11.4477 10 11 9.55228 11 9C11 8.44772 11.4477 8 12 8C12.5523 8 13 8.44772 13 9Z" stroke="#000000" stroke-width="2" stroke-linecap="round" stroke-linejoin="round"/>
</symbol>
        <symbol id="phone">
        <g stroke-width="0"/>
        <g id="SVGRepo_tracerCarrier" stroke-linecap="round" stroke-linejoin="round"/>
        <g id="SVGRepo_iconCarrier"> <path d="M15 3C16.5315 3.17014 17.9097 3.91107 19 5C20.0903 6.08893 20.8279 7.46869 21 9M14.5 6.5C15.2372 6.64382 15.9689 6.96892 16.5 7.5C17.0311 8.03108 17.3562 8.76284 17.5 9.5M8.20049 15.799C1.3025 8.90022 2.28338 5.74115 3.01055 4.72316C3.10396 4.55862 5.40647 1.11188 7.87459 3.13407C14.0008 8.17945 6.5 8 11.3894 12.6113C16.2788 17.2226 15.8214 9.99995 20.8659 16.1249C22.8882 18.594 19.4413 20.8964 19.2778 20.9888C18.2598 21.717 15.0995 22.6978 8.20049 15.799Z" stroke-width="1.5" stroke-linecap="round" stroke-linejoin="round"/> </g>
        </symbol>
        <symbol id="email">
<g>
	<path class="st0" d="M510.746,110.361c-2.128-10.754-6.926-20.918-13.926-29.463c-1.422-1.794-2.909-3.39-4.535-5.009
		c-12.454-12.52-29.778-19.701-47.531-19.701H67.244c-17.951,0-34.834,7-47.539,19.708c-1.608,1.604-3.099,3.216-4.575,5.067
		c-6.97,8.509-11.747,18.659-13.824,29.428C0.438,114.62,0,119.002,0,123.435v265.137c0,9.224,1.874,18.206,5.589,26.745
		c3.215,7.583,8.093,14.772,14.112,20.788c1.516,1.509,3.022,2.901,4.63,4.258c12.034,9.966,27.272,15.45,42.913,15.45h377.51
		c15.742,0,30.965-5.505,42.967-15.56c1.604-1.298,3.091-2.661,4.578-4.148c5.818-5.812,10.442-12.49,13.766-19.854l0.438-1.05
		c3.646-8.377,5.497-17.33,5.497-26.628V123.435C512,119.06,511.578,114.649,510.746,110.361z M34.823,99.104
		c0.951-1.392,2.165-2.821,3.714-4.382c7.689-7.685,17.886-11.914,28.706-11.914h377.51c10.915,0,21.115,4.236,28.719,11.929
		c1.313,1.327,2.567,2.8,3.661,4.272l2.887,3.88l-201.5,175.616c-6.212,5.446-14.21,8.443-22.523,8.443
		c-8.231,0-16.222-2.99-22.508-8.436L32.19,102.939L34.823,99.104z M26.755,390.913c-0.109-0.722-0.134-1.524-0.134-2.341V128.925
		l156.37,136.411L28.199,400.297L26.755,390.913z M464.899,423.84c-6.052,3.492-13.022,5.344-20.145,5.344H67.244
		c-7.127,0-14.094-1.852-20.142-5.344l-6.328-3.668l159.936-139.379l17.528,15.246c10.514,9.128,23.922,14.16,37.761,14.16
		c13.89,0,27.32-5.032,37.827-14.16l17.521-15.253L471.228,420.18L464.899,423.84z M485.372,388.572
		c0,0.803-0.015,1.597-0.116,2.304l-1.386,9.472L329.012,265.409l156.36-136.418V388.572z"/>
</g>
</symbol>
    </svg>